<svg width="57" height="68" viewBox="0 0 57 68" fill="none" xmlns="http://www.w3.org/2000/svg">
<path d="M43.123 37.5658C36.4456 41.9178 30.6704 44.5781 25.7843 45.9215L25.771 42.2197L18.7021 44.3688L18.6889 47.0158C3.52615 47.2052 1.47615 30.9483 11.8323 20.1777C4.89613 36.2357 28.5342 33.6119 38.6979 35.1079C41.3782 35.5026 43.123 36.1826 43.123 37.5658Z" fill="#FECC0B"/>
<path d="M49.8402 47.9648V49.9219L45.438 51.2614L45.441 49.3033L49.8402 47.9648Z" fill="#22297C"/>
<path d="M26.786 54.2969V56.44L25.771 56.7485L22.288 57.8097V55.6672L25.771 54.6057L26.786 54.2969Z" fill="#22297C"/>
<path d="M21.5615 56.1003V58.2432L18.7021 59.1156L17.0634 59.6131V57.4703L18.7021 56.9727L21.5615 56.1003Z" fill="#22297C"/>
<path d="M51.8305 38.9524V42.9146C51.8305 43.661 51.1671 44.601 49.6588 45.1444L45.1962 46.502L43.5377 47.0066V52.97C43.4962 54.131 42.584 54.7115 41.8383 55.0037L36.7577 56.5501L34.4785 57.2434C34.4785 57.2434 29.454 58.7762 29.4092 58.7858C28.3826 59.0101 27.9819 58.5052 27.9275 58.0289V53.9495L34.4788 51.9593V54.3522C34.4788 55.071 36.7382 54.8982 36.7581 53.9031V43.5406L43.4285 41.5109V44.138C43.8422 44.9191 45.4318 44.6982 45.4454 43.6334V40.8969L49.8406 39.5601L51.8305 38.9524Z" fill="#22297C"/>
<path d="M43.6206 36.9289C53.5721 29.2996 59.8746 14.8139 0.938751 9.39717C52.4674 -13.8223 70.3801 18.3533 43.6206 36.9289Z" fill="#22297C"/>
<path d="M34.4785 44.2331V48.7908C34.4785 49.2684 34.0304 49.9318 33.1914 50.1541L27.9271 51.7562L26.786 52.1045L25.771 52.413L22.288 53.4711L21.5615 53.6934L18.7021 54.5625L17.0634 55.0633L16.8346 55.133L12.154 56.556C11.0826 56.7318 10.0344 56.3603 9.86853 55.5609V51.7231L16.8346 49.6034V52.5755C16.9507 53.0466 18.596 52.9205 18.659 52.1609L18.6888 47.0161L18.7021 44.3691L25.771 42.22L25.7842 45.9218L25.8008 49.6535C25.834 50.2735 27.5523 49.8924 27.5456 49.146L27.5324 46.3461L27.9271 46.227L34.4785 44.2331Z" fill="#22297C"/>
<path d="M7.27518 66.1537L8.37481 62.9358H8.90921L10.0088 66.1537H9.55108L9.25519 65.2544H8.00893L7.71304 66.1537H7.27518ZM9.13511 64.8892L8.63123 63.372L8.12968 64.8892H9.13511Z" fill="#22297C"/>
<path d="M13.2411 66.1537H11.3506V62.9358H11.7845V65.7735H13.2414V66.1537H13.2411Z" fill="#22297C"/>
<path d="M15.6487 66.2165C15.4181 66.2165 15.2068 66.1817 15.0158 66.1127C14.8244 66.0437 14.6602 65.9385 14.5228 65.7972C14.3855 65.6546 14.2803 65.4781 14.2074 65.2675C14.1344 65.0572 14.0979 64.8154 14.0979 64.5414C14.0979 64.2823 14.1347 64.0501 14.2084 63.8445C14.282 63.6391 14.3875 63.464 14.5248 63.318C14.6575 63.1767 14.8214 63.0679 15.0154 62.992C15.2095 62.9157 15.4221 62.8772 15.6527 62.8772C15.7624 62.8772 15.8673 62.8852 15.9681 62.9007C16.069 62.917 16.1652 62.9382 16.2574 62.9658C16.3303 62.9873 16.4119 63.0172 16.5015 63.0557C16.5914 63.0938 16.6641 63.1266 16.7194 63.1538V63.6706H16.6823C16.6282 63.6229 16.5725 63.5781 16.5148 63.5356C16.4571 63.4932 16.3758 63.4471 16.2706 63.3983C16.1831 63.3552 16.0822 63.319 15.9681 63.2905C15.8543 63.2613 15.7316 63.247 15.6002 63.247C15.2861 63.247 15.0327 63.3638 14.839 63.5973C14.6452 63.8309 14.5487 64.1413 14.5487 64.5288C14.5487 64.745 14.5742 64.9338 14.6253 65.095C14.6764 65.2565 14.7501 65.3935 14.8466 65.5056C14.9401 65.6168 15.0529 65.7013 15.1853 65.7597C15.3176 65.8181 15.4659 65.8473 15.6311 65.8473C15.7538 65.8473 15.8756 65.839 15.997 65.8214C16.118 65.8042 16.2202 65.7783 16.3035 65.7438V64.9119H15.5502V64.5354H16.733V65.9405C16.6777 65.9647 16.6033 65.9959 16.5108 66.0331C16.4179 66.0705 16.3313 66.1001 16.2511 66.122C16.1443 66.1538 16.0481 66.1774 15.9618 66.1933C15.8756 66.2092 15.7714 66.2165 15.6487 66.2165Z" fill="#22297C"/>
<path d="M18.8447 63.316V64.1976H20.3411V64.5778H18.8447V65.7733H20.4506V66.1534H18.4112V62.9358H19.0461L19.3752 62.2356L19.6432 62.4024L19.3695 62.9358H20.4506V63.316H18.8447Z" fill="#22297C"/>
<path d="M23.9237 66.1537H23.3607L22.3268 64.8743H21.8315V66.1537H21.3976V62.9358H22.2389C22.4256 62.9358 22.5825 62.9454 22.7089 62.966C22.8353 62.9862 22.9554 63.033 23.0692 63.1063C23.1829 63.1786 23.2732 63.2715 23.3395 63.3853C23.4058 63.499 23.4394 63.6403 23.4394 63.8088C23.4394 64.045 23.3786 64.2427 23.2576 64.4009C23.1365 64.5592 22.9713 64.6769 22.7623 64.7532L23.9237 66.1537ZM22.9859 63.841C22.9859 63.7475 22.969 63.6642 22.9355 63.5912C22.9016 63.5186 22.8499 63.4592 22.7799 63.4131C22.7185 63.373 22.6469 63.3445 22.5653 63.3275C22.4833 63.3113 22.3818 63.303 22.2608 63.303H21.8315V64.5177H22.2127C22.3367 64.5177 22.4485 64.5068 22.5477 64.4849C22.6469 64.463 22.7318 64.4185 22.8018 64.3512C22.8645 64.2902 22.9109 64.2185 22.9408 64.1349C22.971 64.0513 22.9859 63.9535 22.9859 63.841Z" fill="#22297C"/>
<path d="M25.2727 66.1537H24.8409V65.8253V63.2642L24.8425 62.9358H25.2781L25.2747 63.2642V65.8253L25.2727 66.1537Z" fill="#22297C"/>
<path d="M26.7946 66.1537V62.9358H28.834V63.3159H27.2282V64.1976H28.7246V64.5777H27.2282V65.7732H28.834V66.1534H26.7946V66.1537Z" fill="#22297C"/>
<path d="M34.7187 63.7279C34.7187 63.8884 34.6878 64.0414 34.6261 64.1866C34.5638 64.3316 34.4749 64.4527 34.3584 64.5502C34.2868 64.6102 34.2085 64.6656 34.1232 64.7167C34.0377 64.7675 33.9431 64.8106 33.84 64.8464C33.7361 64.8819 33.6243 64.9098 33.5029 64.93C33.3815 64.9502 33.2465 64.9599 33.0959 64.9599H32.5436V66.0873H31.4901V62.6399H33.1185C33.3603 62.6399 33.5693 62.6581 33.7451 62.6943C33.9209 62.7304 34.0801 62.7878 34.2224 62.8671C34.3803 62.9534 34.5024 63.0685 34.5886 63.2131C34.6755 63.3574 34.7187 63.5289 34.7187 63.7279ZM33.6373 63.7488C33.6373 63.6516 33.6087 63.568 33.5524 63.4977C33.496 63.4274 33.4286 63.3796 33.3497 63.3527C33.2502 63.3176 33.155 63.297 33.0641 63.2914C32.9729 63.2857 32.8495 63.2834 32.6935 63.2834H32.5443V64.316H32.6176C32.7171 64.316 32.811 64.315 32.8992 64.3134C32.9874 64.312 33.0644 64.3064 33.1301 64.2971C33.1865 64.2895 33.2462 64.2745 33.3089 64.252C33.3716 64.2294 33.4203 64.2042 33.4542 64.1764C33.5255 64.1193 33.5739 64.0599 33.5995 63.9982C33.6243 63.9372 33.6373 63.8536 33.6373 63.7488Z" fill="#22297C"/>
<path d="M39.434 64.3649C39.434 64.9222 39.2526 65.3603 38.89 65.6798C38.5274 65.9995 38.0305 66.1588 37.3999 66.1588C36.767 66.1588 36.2704 65.9975 35.9095 65.6741C35.5493 65.3504 35.3688 64.9142 35.3688 64.3649C35.3688 63.8106 35.5493 63.3728 35.9095 63.051C36.2704 62.7289 36.767 62.5684 37.3999 62.5684C38.0305 62.5684 38.5274 62.7282 38.89 63.0483C39.2526 63.3691 39.434 63.8076 39.434 64.3649ZM38.3463 64.3622C38.3463 64.1572 38.3208 63.9821 38.2694 63.8381C38.2176 63.6935 38.1486 63.5751 38.062 63.4825C37.9721 63.3887 37.8703 63.3213 37.7565 63.2802C37.6427 63.2394 37.525 63.2188 37.4032 63.2188C37.2735 63.2188 37.1561 63.2377 37.0506 63.2756C36.9458 63.3134 36.8443 63.3807 36.7468 63.4779C36.6599 63.5675 36.5902 63.6865 36.5368 63.8345C36.4831 63.9824 36.4565 64.1592 36.4565 64.3649C36.4565 64.5762 36.4817 64.7517 36.5325 64.8916C36.5832 65.0313 36.6529 65.148 36.7411 65.2423C36.831 65.3381 36.9335 65.4061 37.0483 65.4472C37.1631 65.488 37.2808 65.5086 37.4032 65.5086C37.527 65.5086 37.6471 65.4867 37.7635 65.4426C37.8803 65.3988 37.9804 65.3305 38.065 65.2379C38.1552 65.1374 38.2246 65.021 38.2733 64.8873C38.3221 64.7533 38.3463 64.5788 38.3463 64.3622Z" fill="#22297C"/>
<path d="M41.684 66.1499C41.3626 66.1499 41.0806 66.1247 40.8372 66.0736C40.5943 66.0228 40.3681 65.9595 40.1598 65.8838V65.0642H40.2553C40.466 65.2105 40.6978 65.3233 40.9513 65.4025C41.205 65.4808 41.4508 65.5203 41.6893 65.5203C41.7497 65.5203 41.829 65.515 41.9278 65.504C42.0264 65.4931 42.1053 65.4762 42.1657 65.453C42.239 65.4271 42.301 65.3903 42.3518 65.3432C42.4025 65.2961 42.4277 65.234 42.4277 65.1567C42.4277 65.0702 42.3866 64.9999 42.3037 64.9461C42.2211 64.892 42.1225 64.8529 42.0081 64.828C41.8648 64.7972 41.7125 64.7677 41.55 64.7401C41.3875 64.7123 41.2359 64.6781 41.0952 64.638C40.7705 64.5438 40.5373 64.4174 40.397 64.2582C40.2557 64.0993 40.1853 63.9002 40.1853 63.6607C40.1853 63.338 40.3515 63.0769 40.6839 62.8773C41.0163 62.6769 41.4316 62.5774 41.9292 62.5774C42.1789 62.5774 42.4274 62.5983 42.6742 62.6398C42.921 62.6812 43.1419 62.7379 43.3376 62.8089V63.5961H43.2447C43.0888 63.4863 42.8984 63.3937 42.6742 63.3181C42.4496 63.2425 42.2194 63.2047 41.9826 63.2047C41.8907 63.2047 41.8081 63.2103 41.7348 63.2209C41.6615 63.2315 41.5845 63.2524 41.5036 63.2833C41.4382 63.3078 41.3812 63.345 41.3331 63.3934C41.2853 63.4418 41.2614 63.4966 41.2614 63.5566C41.2614 63.6445 41.2992 63.7142 41.3755 63.7659C41.4518 63.8176 41.5988 63.8644 41.8164 63.9059C41.9574 63.9324 42.093 63.9576 42.2234 63.9822C42.3544 64.0067 42.4934 64.0412 42.642 64.0843C42.9329 64.1709 43.1492 64.2867 43.2912 64.4326C43.4332 64.5786 43.5041 64.7713 43.5041 65.0105C43.5041 65.3531 43.3403 65.6284 43.0129 65.8367C42.6845 66.0454 42.2416 66.1499 41.684 66.1499Z" fill="#22297C"/>
<path d="M45.1787 66.087V63.2973H43.9394V62.6399H47.4718V63.2973H46.2325V66.087H45.1787Z" fill="#22297C"/>
<path d="M48.2374 66.0871V62.6396H51.0742V63.2971H49.2853V63.9011H50.9332V64.5586H49.2853V65.429H51.0742V66.0864H48.2374V66.0871Z" fill="#22297C"/>
</svg>
