<svg width="17" height="17" viewBox="0 0 17 17" fill="none" xmlns="http://www.w3.org/2000/svg">
<path d="M1.31154 0.146126C0.747091 0.282259 0.262325 0.770346 0.132833 1.32816C0.0398643 1.7266 0.109591 2.19476 0.31213 2.53675C0.358614 2.61312 1.70334 3.98109 3.30041 5.57816L6.20901 8.48343L3.26057 11.4385C0.0863486 14.6194 0.172677 14.5231 0.0498252 14.9912C-0.0464638 15.3731 0.00666117 15.7682 0.20588 16.1434C0.517989 16.7311 1.25178 17.0166 2.02873 16.8539C2.49358 16.7543 2.37072 16.8639 5.52834 13.7096C7.13537 12.1059 8.46682 10.791 8.48342 10.791C8.50002 10.791 9.83147 12.1026 11.4385 13.7096C14.1479 16.4157 14.377 16.6348 14.5762 16.7278C15.2635 17.0465 16.0936 16.917 16.5684 16.4157C17.0166 15.9442 17.1196 15.2203 16.8274 14.6127C16.7311 14.4102 16.4987 14.1711 13.7494 11.4319L10.7744 8.47347L13.6664 5.57152C15.4694 3.76527 16.5916 2.61644 16.6447 2.52347C16.7908 2.26449 16.844 2.01878 16.8274 1.66351C16.8074 1.28167 16.7278 1.04925 16.5186 0.770346C16.1102 0.229134 15.3697 3.24249e-05 14.7256 0.219173C14.3571 0.342026 14.191 0.498079 11.309 3.38343L8.48674 6.2057L5.58147 3.31038C2.45705 0.202572 2.53342 0.268978 2.07522 0.149446C1.84611 0.0896816 1.54397 0.0896816 1.31154 0.146126Z" fill="#858585"/>
</svg>
