<svg width="64" height="53" viewBox="0 0 64 53" fill="none" xmlns="http://www.w3.org/2000/svg">
<g clip-path="url(#clip0_84_182)">
<path d="M63.8995 12.0035C63.1844 4.97014 58.9426 0.498764 51.6097 0.172414C46.9247 -0.0564064 42.2136 0.0936397 37.5249 0.0373724C36.5938 0.026119 36.3108 0.374976 36.1246 1.27525C32.4798 18.0504 28.809 34.818 25.1122 51.5782C24.8924 52.5685 25.0153 53.0074 26.1996 52.9999C33.3612 52.9398 40.5228 53.0786 47.6807 52.9136C54.3842 52.7598 59.9705 46.9117 60.3876 40.1934C60.7339 34.848 59.4118 30.2491 54.9838 26.6668C61.6091 24.1123 64.6108 18.9732 63.8995 12.0035ZM48.7868 43.9258C46.1538 45.8614 43.1074 46.3828 39.9083 46.4691C34.4003 46.6117 34.4114 46.6679 35.659 41.3075C36.3443 38.3554 37.1152 35.4107 37.577 32.4211C37.8377 30.748 38.4745 30.1704 40.0722 30.3917C40.8162 30.4431 41.5627 30.4431 42.3067 30.3917V30.3842C43.599 30.4592 44.9136 30.4104 46.1798 30.6318C48.8501 31.0931 50.8872 32.4211 51.6209 35.2494C52.4625 38.4867 51.3564 42.0465 48.7868 43.9258ZM54.0006 20.4174C51.8929 22.1533 49.2738 23.1373 46.5523 23.2157C44.5846 23.3295 42.6116 23.3158 40.6457 23.1745C39.5024 23.0882 39.3907 22.6155 39.6141 21.6477C40.5936 17.3639 41.5917 13.0839 42.4557 8.77755C42.6903 7.60719 43.0999 7.17956 44.2507 7.27709C45.1706 7.35962 46.1128 7.27709 47.0252 7.27709V7.34461C47.9488 7.34461 48.8873 7.2846 49.796 7.34461C52.6674 7.55843 55.1253 8.49247 56.183 11.5084C57.2704 14.6744 56.3841 18.4255 54.0006 20.4174Z" fill="#204494"/>
<path d="M12.0738 24.041C14.0141 25.4177 16.2411 26.0591 18.4794 26.6668C17.958 28.7574 17.4354 30.8468 16.9115 32.935C13.3884 32.5599 10.0255 31.6783 7.0089 29.7202C-1.22898 24.3824 -2.42072 13.0539 4.59191 6.18553C7.57125 3.26713 11.1353 1.65414 15.2877 0.832636C18.128 0.242508 21.0325 0.0281339 23.9278 0.19494L22.4754 7.19459C19.3434 7.30337 16.2374 7.47217 13.3288 8.8826C6.40186 12.2361 5.78365 19.5734 12.0738 24.041Z" fill="#204494"/>
<path d="M26.1326 27.9047C24.3562 35.8909 22.5797 43.8884 20.8554 51.8671C20.6469 52.8273 20.1776 52.9924 19.3322 52.9924C17.6675 52.9436 15.9805 52.9099 14.3344 52.9924C12.9825 53.0674 12.6473 52.6735 12.9676 51.3006C14.2748 45.6739 15.4814 40.0472 16.7179 34.4204C16.8221 33.9403 16.8482 33.4414 16.9115 32.9537C17.4329 30.8631 17.9555 28.7737 18.4794 26.6856C20.7139 26.6856 22.9223 26.7343 25.142 26.6856C26.0693 26.6743 26.33 27.0082 26.1326 27.9047Z" fill="#FDB737"/>
<path d="M31.6779 1.33526C31.3502 3.02703 30.9591 4.7113 30.6165 6.39932C30.6038 6.53802 30.5632 6.67266 30.4971 6.795C30.431 6.91734 30.3408 7.02481 30.232 7.11084C30.1232 7.19687 29.9982 7.25964 29.8645 7.29532C29.7309 7.331 29.5914 7.33883 29.4546 7.31835C27.1307 7.26583 24.8031 7.23207 22.4755 7.19456L23.9279 0.194914C26.1624 -0.180201 28.4528 0.138646 30.7133 0.0186097C31.7524 -0.0376576 31.8157 0.60754 31.6779 1.33526Z" fill="#FDB737"/>
</g>
<defs>
<clipPath id="clip0_84_182">
<rect width="64" height="53" fill="white"/>
</clipPath>
</defs>
</svg>
