<svg width="18" height="20" viewBox="0 0 18 20" fill="none" xmlns="http://www.w3.org/2000/svg">
<path d="M14.6449 12.9242C13.8528 14.0121 12.5698 14.7206 11.1243 14.7206H9.09593C8.39525 14.7206 7.79856 14.2757 7.57261 13.6531C7.29371 13.5699 7.02021 13.4619 6.75332 13.3293C6.18813 13.0485 5.67494 12.6681 5.22318 12.1968C2.2928 12.8405 0.0996094 15.4516 0.0996094 18.5754V18.9837C0.0996094 19.545 0.554633 20 1.11591 20H16.8839C17.4452 20 17.9002 19.545 17.9002 18.9837V18.5754C17.9002 16.1623 16.5913 14.055 14.6449 12.9242Z" fill="#6393F2"/>
<path d="M4.14307 10.102C4.57986 10.102 4.96005 9.8599 5.15702 9.50264C5.16219 9.51678 5.16746 9.53084 5.17277 9.54489C5.17433 9.54911 5.1759 9.55333 5.17747 9.55755C5.63954 10.7738 6.53862 11.7934 7.72417 12.2389C8.0109 11.7833 8.51792 11.4803 9.09603 11.4803H11.1244C11.3267 11.4803 11.515 11.4232 11.6801 11.331C11.9573 11.1759 12.2066 10.7827 12.3354 10.5742C12.5414 10.2406 12.701 9.88727 12.8426 9.50203C12.9221 9.64649 13.0315 9.77214 13.1625 9.8706V10.368C13.1625 11.4918 12.2482 12.4062 11.1243 12.4062H9.09599C8.71254 12.4062 8.40166 12.717 8.40166 13.1005C8.40166 13.484 8.71254 13.7948 9.09599 13.7948H11.1243C13.0139 13.7948 14.5512 12.2575 14.5512 10.368V9.8706C14.8323 9.65945 15.0141 9.32338 15.0141 8.94481V6.85116V6.04832C15.0141 5.66196 14.8246 5.3201 14.5337 5.10991C14.308 2.2545 11.9124 0 8.99996 0C6.08751 0 3.69191 2.2545 3.46627 5.10986C3.17532 5.32006 2.98584 5.66196 2.98584 6.04828V8.94472C2.98584 9.58566 3.50652 10.102 4.14307 10.102ZM8.99996 1.3887C11.156 1.3887 12.9342 3.03632 13.1421 5.13858C13.0056 5.24592 12.8939 5.3831 12.8168 5.54052C12.1617 3.8312 10.6991 2.64112 8.99992 2.64112C7.26406 2.64112 5.82498 3.8721 5.18556 5.53369C5.18469 5.53595 5.18386 5.53826 5.18299 5.54057C5.10598 5.38315 4.9942 5.24596 4.85776 5.13862C5.06573 3.03632 6.84397 1.3887 8.99996 1.3887Z" fill="#6393F2"/>
</svg>
