<svg width="18" height="18" viewBox="0 0 18 18" fill="none" xmlns="http://www.w3.org/2000/svg">
<path d="M8.99995 1.44C7.50472 1.44 6.04307 1.88339 4.79983 2.71409C3.5566 3.5448 2.58761 4.72551 2.01542 6.10692C1.44322 7.48832 1.2935 9.00839 1.58521 10.4749C1.87691 11.9414 2.59693 13.2884 3.65422 14.3457C4.7115 15.403 6.05857 16.123 7.52506 16.4147C8.99156 16.7064 10.5116 16.5567 11.893 15.9845C13.2744 15.4123 14.4552 14.4433 15.2859 13.2001C16.1166 11.9569 16.5599 10.4952 16.5599 9C16.558 6.99555 15.7609 5.07374 14.3436 3.65638C12.9262 2.23902 11.0044 1.44191 8.99995 1.44ZM5.03994 10.08C4.82634 10.08 4.61753 10.0167 4.43993 9.89799C4.26232 9.77932 4.1239 9.61064 4.04216 9.4133C3.96041 9.21596 3.93902 8.9988 3.9807 8.7893C4.02237 8.5798 4.12523 8.38737 4.27627 8.23633C4.42731 8.08529 4.61975 7.98243 4.82925 7.94075C5.03875 7.89908 5.2559 7.92047 5.45324 8.00221C5.65059 8.08395 5.81926 8.22238 5.93793 8.39999C6.0566 8.57759 6.11995 8.7864 6.11995 9C6.11995 9.28644 6.00616 9.56114 5.80362 9.76368C5.60108 9.96622 5.32638 10.08 5.03994 10.08ZM8.99995 10.08C8.78634 10.08 8.57753 10.0167 8.39993 9.89799C8.22232 9.77932 8.0839 9.61064 8.00216 9.4133C7.92041 9.21596 7.89902 8.9988 7.9407 8.7893C7.98237 8.5798 8.08523 8.38737 8.23627 8.23633C8.38731 8.08529 8.57975 7.98243 8.78925 7.94075C8.99875 7.89908 9.2159 7.92047 9.41324 8.00221C9.61059 8.08395 9.77926 8.22238 9.89793 8.39999C10.0166 8.57759 10.0799 8.7864 10.0799 9C10.0799 9.28644 9.96616 9.56114 9.76362 9.76368C9.56108 9.96622 9.28638 10.08 8.99995 10.08ZM12.9599 10.08C12.7463 10.08 12.5375 10.0167 12.3599 9.89799C12.1823 9.77932 12.0439 9.61064 11.9622 9.4133C11.8804 9.21596 11.859 8.9988 11.9007 8.7893C11.9424 8.5798 12.0452 8.38737 12.1963 8.23633C12.3473 8.08529 12.5397 7.98243 12.7492 7.94075C12.9587 7.89908 13.1759 7.92047 13.3732 8.00221C13.5706 8.08395 13.7393 8.22238 13.8579 8.39999C13.9766 8.57759 14.0399 8.7864 14.0399 9C14.0399 9.28644 13.9262 9.56114 13.7236 9.76368C13.5211 9.96622 13.2464 10.08 12.9599 10.08Z" fill="#6393F2"/>
</svg>
