<svg width="12" height="12" viewBox="0 0 12 12" fill="none" xmlns="http://www.w3.org/2000/svg">
<path d="M11.6762 5.21942C11.6759 5.21915 11.6757 5.21887 11.6754 5.2186L6.78035 0.32373C6.5717 0.11499 6.29429 0 5.99922 0C5.70414 0 5.42674 0.114899 5.218 0.323639L0.325513 5.21603C0.323865 5.21768 0.322217 5.21942 0.320569 5.22107C-0.107898 5.65201 -0.107165 6.3512 0.322675 6.78104C0.519055 6.97751 0.778424 7.09131 1.05574 7.10321C1.067 7.10431 1.07835 7.10486 1.0898 7.10486H1.28489V10.7072C1.28489 11.42 1.86488 12 2.57789 12H4.49299C4.68709 12 4.84456 11.8426 4.84456 11.6484V8.82422C4.84456 8.49893 5.10914 8.23434 5.43443 8.23434H6.56401C6.88929 8.23434 7.15388 8.49893 7.15388 8.82422V11.6484C7.15388 11.8426 7.31126 12 7.50544 12H9.42054C10.1336 12 10.7135 11.42 10.7135 10.7072V7.10486H10.8945C11.1894 7.10486 11.4668 6.98996 11.6757 6.78122C12.106 6.35065 12.1062 5.65027 11.6762 5.21942Z" fill="white"/>
</svg>
