<svg width="18" height="18" viewBox="0 0 18 18" fill="none" xmlns="http://www.w3.org/2000/svg">
<path d="M10.2303 0.0562496C11.0354 0.228516 11.7456 0.921093 11.9319 1.72266C12.0092 2.04609 12.0092 3.11484 11.9354 3.29766C11.7104 3.83203 10.9757 3.90234 10.6346 3.41719C10.5292 3.2625 10.5292 3.2625 10.5116 2.66133C10.4905 2.01094 10.4553 1.88086 10.2585 1.69805C10.0616 1.51172 10.0546 1.51172 8.11394 1.51523H6.31042L6.50378 1.58906C6.89753 1.73672 7.17878 2.00039 7.3616 2.38711L7.47058 2.61914L7.48113 8.43047L7.48816 14.2418L8.75027 14.2312L10.0124 14.2207L10.1671 14.1152C10.2479 14.0555 10.3569 13.9359 10.4061 13.8516C10.494 13.6969 10.494 13.6758 10.5116 12.7266C10.5292 11.6754 10.5362 11.6543 10.7471 11.4539C11.1092 11.1094 11.6858 11.2184 11.9214 11.6789C11.9811 11.7984 11.9882 11.8934 11.9882 12.8039C11.9882 13.9254 11.9671 14.0801 11.7491 14.5195C11.5628 14.9027 11.1585 15.3 10.7577 15.5004C10.2866 15.7324 10.146 15.75 8.72566 15.75H7.48816V16.2527C7.48816 16.5973 7.47058 16.8117 7.43542 16.9312C7.35456 17.209 7.13308 17.5219 6.8905 17.6977C6.59871 17.9121 6.38074 17.9824 5.99402 17.9824H5.67761L3.32215 17.1949C2.02488 16.7625 0.889338 16.3687 0.794416 16.323C0.59051 16.2211 0.330355 15.968 0.200276 15.75C-0.0106602 15.3844 -0.000113487 15.8238 -0.000113487 8.27227C-0.000113487 3.35742 0.0104332 1.32187 0.038558 1.18828C0.15809 0.622265 0.646761 0.14414 1.23035 0.0351562C1.34988 0.014061 2.96004 0 5.70925 0.00351524C9.24245 0.00351524 10.044 0.014061 10.2303 0.0562496Z" fill="#6393F2"/>
<path d="M13.7987 3.81095C13.9393 3.87072 14.1327 4.06408 14.1889 4.20822C14.2276 4.29611 14.2381 4.59142 14.2381 5.53361V6.74649L15.8659 6.75704L17.4936 6.76759L17.6412 6.86603C17.8522 7.00314 17.9682 7.19649 17.9893 7.44259C18.0139 7.72384 17.8803 7.98399 17.6307 8.13868L17.462 8.24415L15.8483 8.2547L14.2381 8.26524V9.46759C14.2381 10.5539 14.2311 10.684 14.1713 10.8106C14.0026 11.1867 13.5174 11.3555 13.1553 11.1656C13.1026 11.1375 12.3291 10.3816 11.4397 9.48516C9.91039 7.94884 9.81546 7.84688 9.77679 7.68868C9.72757 7.48478 9.75218 7.30548 9.86117 7.11915C9.98773 6.9047 13.0323 3.88126 13.1905 3.81798C13.3487 3.75119 13.6545 3.74767 13.7987 3.81095Z" fill="#6393F2"/>
</svg>
