<svg width="106" height="118" viewBox="0 0 106 118" fill="none" xmlns="http://www.w3.org/2000/svg">
<path d="M52.8199 61.2748C69.6772 61.2748 83.4572 47.4948 83.4572 30.6375C83.4572 13.7802 69.6772 0.000244141 52.8199 0.000244141C35.9627 0.000244141 22.1829 13.7802 22.1829 30.6375C22.1829 47.4948 35.9629 61.2748 52.8199 61.2748Z" fill="#C4C4C4"/>
<path d="M105.399 85.7579C104.596 83.751 103.526 81.8781 102.322 80.1388C96.1673 71.0412 86.6687 65.0208 75.9657 63.5491C74.628 63.4155 73.1563 63.6828 72.0859 64.4856C66.4668 68.633 59.7776 70.7736 52.8205 70.7736C45.8634 70.7736 39.1742 68.633 33.5551 64.4856C32.4847 63.6828 31.013 63.2815 29.6753 63.5491C18.9723 65.0208 9.3397 71.0412 3.31933 80.1388C2.11526 81.8781 1.04486 83.8849 0.242319 85.7579C-0.158953 86.5607 -0.0252813 87.4972 0.375991 88.3C1.44639 90.1729 2.78413 92.0461 3.98821 93.6514C5.86115 96.1935 7.86802 98.4677 10.1425 100.608C12.0154 102.481 14.156 104.22 16.2968 105.96C26.8658 113.853 39.5757 118 52.6868 118C65.7979 118 78.5078 113.853 89.0768 105.96C91.2174 104.354 93.3579 102.481 95.2311 100.608C97.3717 98.4677 99.5122 96.1933 101.385 93.6514C102.723 91.9122 103.927 90.1729 104.998 88.3C105.666 87.4972 105.8 86.5604 105.399 85.7579Z" fill="#C4C4C4"/>
</svg>
