<svg width="45" height="45" viewBox="0 0 45 45" fill="none" xmlns="http://www.w3.org/2000/svg">
<path d="M29.5938 21.5938H24.4062V16.4062C24.4062 15.6296 23.7767 15 23 15C22.2233 15 21.5938 15.6296 21.5938 16.4062V21.5938H16.4062C15.6296 21.5938 15 22.2233 15 23C15 23.7767 15.6296 24.4062 16.4062 24.4062H21.5938V29.5938C21.5938 30.3704 22.2233 31 23 31C23.7767 31 24.4062 30.3704 24.4062 29.5938V24.4062H29.5938C30.3704 24.4062 31 23.7767 31 23C31 22.2233 30.3704 21.5938 29.5938 21.5938Z" fill="#6393F2"/>
<circle cx="22.5" cy="22.5" r="21.5" stroke="#6393F2" stroke-width="2"/>
</svg>
