<svg width="13" height="9" viewBox="0 0 13 9" fill="none" xmlns="http://www.w3.org/2000/svg">
<path d="M13 2.13867V1.45312C13 0.667844 12.3634 0.03125 11.5781 0.03125H1.42188C0.636594 0.03125 0 0.667844 0 1.45312V2.13867C0 2.20878 0.0568496 2.26562 0.126953 2.26562H12.873C12.9432 2.26562 13 2.20878 13 2.13867Z" fill="#C4C4C4"/>
<path d="M0 3.20508V7.54688C0 8.33216 0.636594 8.96875 1.42188 8.96875H11.5781C12.3634 8.96875 13 8.33216 13 7.54688V3.20508C13 3.13497 12.9432 3.07812 12.873 3.07812H0.126953C0.0568496 3.07812 0 3.13497 0 3.20508ZM3.25 6.53125C3.25 6.7556 3.0681 6.9375 2.84375 6.9375H2.4375C2.21315 6.9375 2.03125 6.7556 2.03125 6.53125V6.125C2.03125 5.90065 2.21315 5.71875 2.4375 5.71875H2.84375C3.0681 5.71875 3.25 5.90065 3.25 6.125V6.53125Z" fill="#C4C4C4"/>
</svg>
