<svg width="52" height="52" viewBox="0 0 52 52" fill="none" xmlns="http://www.w3.org/2000/svg">
<rect width="52" height="52" rx="12" fill="#C4C4C4"/>
<path d="M39.7609 16.9111L39.7882 16.8821L32.972 10.1347L31.0246 12.0686L34.8922 15.89C33.8942 16.2679 33.0611 16.9812 32.5377 17.9058C32.0142 18.8304 31.8336 19.9079 32.0271 20.951C32.2206 21.9941 32.7761 22.937 33.5969 23.6156C34.4178 24.2943 35.4522 24.6659 36.5203 24.6659C37.1504 24.6654 37.7734 24.5337 38.349 24.2792V37.3793C38.349 37.8609 38.1563 38.3228 37.8134 38.6633C37.4704 39.0039 37.0053 39.1952 36.5203 39.1952C36.0353 39.1952 35.5702 39.0039 35.2272 38.6633C34.8843 38.3228 34.6916 37.8609 34.6916 37.3793V29.2086C34.6916 28.2449 34.3061 27.3206 33.6199 26.6392C32.9336 25.9577 32.0029 25.5749 31.0324 25.5749H29.2017V12.8596C29.202 12.3825 29.1076 11.91 28.9239 11.4691C28.7402 11.0283 28.4708 10.6277 28.1312 10.2902C27.7916 9.95278 27.3883 9.68509 26.9444 9.50246C26.5006 9.31982 26.0248 9.22581 25.5444 9.22581H14.5626C13.5921 9.22581 12.6614 9.60866 11.9751 10.2901C11.2889 10.9716 10.9033 11.8958 10.9033 12.8596V41.9258H29.1978V28.3016H31.9438V37.3909C31.9438 38.5962 32.4259 39.7521 33.2842 40.6044C34.1425 41.4567 35.3065 41.9355 36.5203 41.9355C37.7341 41.9355 38.8982 41.4567 39.7564 40.6044C40.6147 39.7521 41.0969 38.5962 41.0969 37.3909V20.1252C41.0969 18.9206 40.6166 17.7649 39.7609 16.9111ZM25.5444 21.9392H14.5626V12.8499H25.5444V21.9392ZM36.5203 21.9392C36.1582 21.9395 35.8041 21.8332 35.5028 21.6337C35.2015 21.4342 34.9665 21.1504 34.8277 20.8183C34.6888 20.4862 34.6523 20.1206 34.7227 19.7678C34.7931 19.4151 34.9673 19.091 35.2232 18.8366C35.4792 18.5822 35.8054 18.4088 36.1605 18.3385C36.5157 18.2682 36.8839 18.3041 37.2185 18.4416C37.5531 18.5792 37.8391 18.8122 38.0403 19.1112C38.2416 19.4101 38.349 19.7617 38.349 20.1213C38.349 20.6041 38.156 21.0672 37.8124 21.4088C37.4687 21.7504 37.0026 21.9425 36.5164 21.943L36.5203 21.9392Z" fill="white"/>
</svg>
