<svg width="52" height="52" viewBox="0 0 52 52" fill="none" xmlns="http://www.w3.org/2000/svg">
<rect width="52" height="52" rx="12" fill="#6393F2"/>
<path d="M39.7608 16.9111L39.7881 16.8821L32.972 10.1347L31.0245 12.0686L34.8922 15.89C33.8942 16.2679 33.061 16.9812 32.5376 17.9058C32.0142 18.8304 31.8335 19.9079 32.0271 20.951C32.2206 21.9941 32.776 22.937 33.5969 23.6156C34.4177 24.2943 35.4521 24.6659 36.5203 24.6659C37.1503 24.6654 37.7733 24.5337 38.3489 24.2791V37.3793C38.3489 37.8609 38.1563 38.3228 37.8133 38.6633C37.4704 39.0039 37.0052 39.1952 36.5203 39.1952C36.0353 39.1952 35.5701 39.0039 35.2272 38.6633C34.8842 38.3228 34.6916 37.8609 34.6916 37.3793V29.2086C34.6916 28.2449 34.3061 27.3206 33.6198 26.6392C32.9336 25.9577 32.0028 25.5748 31.0323 25.5748H29.2017V12.8596C29.2019 12.3825 29.1075 11.91 28.9238 11.4691C28.7401 11.0283 28.4708 10.6277 28.1311 10.2902C27.7915 9.95278 27.3882 9.68509 26.9444 9.50245C26.5005 9.31981 26.0248 9.22581 25.5443 9.22581H14.5626C13.592 9.22581 12.6613 9.60865 11.975 10.2901C11.2888 10.9716 10.9033 11.8958 10.9033 12.8596V41.9258H29.1978V28.3016H31.9437V37.3909C31.9437 38.5962 32.4259 39.7521 33.2841 40.6044C34.1424 41.4567 35.3065 41.9355 36.5203 41.9355C37.734 41.9355 38.8981 41.4567 39.7564 40.6044C40.6146 39.7521 41.0968 38.5962 41.0968 37.3909V20.1252C41.0969 18.9205 40.6165 17.7649 39.7608 16.9111ZM25.5443 21.9392H14.5626V12.8499H25.5443V21.9392ZM36.5203 21.9392C36.1581 21.9395 35.804 21.8332 35.5027 21.6337C35.2014 21.4342 34.9665 21.1504 34.8276 20.8183C34.6887 20.4862 34.6522 20.1206 34.7226 19.7678C34.793 19.4151 34.9672 19.091 35.2232 18.8366C35.4791 18.5821 35.8053 18.4088 36.1605 18.3385C36.5156 18.2682 36.8838 18.3041 37.2184 18.4416C37.553 18.5792 37.839 18.8122 38.0403 19.1112C38.2415 19.4101 38.3489 19.7617 38.3489 20.1213C38.3489 20.6041 38.1559 21.0672 37.8123 21.4088C37.4687 21.7503 37.0026 21.9425 36.5164 21.943L36.5203 21.9392Z" fill="white"/>
</svg>
