<svg width="23" height="22" viewBox="0 0 23 22" fill="none" xmlns="http://www.w3.org/2000/svg">
<path d="M5.35577 4.18782L14.4922 1.69396L14.0084 0.715977C13.6918 0.0802869 12.9197 -0.182225 12.284 0.134333L4.10498 4.18782H5.35577Z" fill="#C4C4C4"/>
<path d="M17.3283 1.76608C17.2151 1.76608 17.1018 1.78152 16.9886 1.81241L14.8422 2.3992L8.28711 4.18788H15.7275H18.9703L18.5688 2.71576C18.4144 2.14183 17.8945 1.76608 17.3283 1.76608Z" fill="#C4C4C4"/>
<path d="M20.3112 5.08878H20.0178H19.6189H19.22H16.1753H4.98772H3.52074H2.28539H2.05634H1.28939C0.882759 5.08878 0.519876 5.27665 0.283101 5.57262C0.175008 5.70902 0.0926511 5.86602 0.0463256 6.03845C0.0180155 6.14654 0 6.25978 0 6.3756V6.53002V7.99699V20.7134C0 21.4237 0.576496 22.0002 1.28682 22.0002H20.3086C21.019 22.0002 21.5954 21.4237 21.5954 20.7134V17.1231H13.9594C12.7524 17.1231 11.7718 16.1426 11.7718 14.9355V13.7568V13.3579V12.959V12.0736C11.7718 11.4817 12.0086 10.9438 12.3921 10.5501C12.7318 10.2 13.1873 9.96325 13.6969 9.90406C13.7819 9.89379 13.8694 9.88862 13.9569 9.88862H20.5248H20.9237H21.3226H21.5954V6.3756C21.598 5.66527 21.0215 5.08878 20.3112 5.08878Z" fill="#C4C4C4"/>
<path d="M22.4988 11.1186C22.3701 11.0002 22.2182 10.9101 22.0484 10.8509C21.9171 10.8072 21.7782 10.7815 21.6315 10.7815H21.598H21.5723H21.1733H19.7347H13.9594C13.2491 10.7815 12.6726 11.3579 12.6726 12.0683V12.7091V13.108V13.5069V14.9327C12.6726 15.643 13.2491 16.2195 13.9594 16.2195H21.598H21.6315C21.7782 16.2195 21.9171 16.1938 22.0484 16.1501C22.2182 16.0934 22.3701 16.0008 22.4988 15.8824C22.7561 15.6482 22.9183 15.3085 22.9183 14.9327V12.0683C22.9183 11.6925 22.7561 11.3528 22.4988 11.1186ZM16.6463 13.7566C16.6463 14.1117 16.3581 14.4 16.0029 14.4H15.5757C15.2205 14.4 14.9323 14.1117 14.9323 13.7566V13.3293C14.9323 13.1235 15.0275 12.9407 15.1793 12.8249C15.29 12.74 15.4264 12.6859 15.5757 12.6859H15.6838H16.0029C16.3581 12.6859 16.6463 12.9742 16.6463 13.3293V13.7566Z" fill="#C4C4C4"/>
</svg>
