<svg width="20" height="20" viewBox="0 0 20 20" fill="none" xmlns="http://www.w3.org/2000/svg">
<path d="M19.625 10C19.625 12.5527 18.6109 15.0009 16.8059 16.8059C15.0009 18.6109 12.5527 19.625 10 19.625C7.44729 19.625 4.99913 18.6109 3.1941 16.8059C1.38906 15.0009 0.375 12.5527 0.375 10C0.375 9.81766 0.447433 9.64279 0.576364 9.51386C0.705295 9.38493 0.880164 9.3125 1.0625 9.3125C1.24484 9.3125 1.4197 9.38493 1.54864 9.51386C1.67757 9.64279 1.75 9.81766 1.75 10C1.74725 11.8412 2.35954 13.6305 3.48969 15.084C4.61984 16.5375 6.20309 17.5719 7.98815 18.0229C9.77321 18.474 11.6578 18.3159 13.3428 17.5738C15.0277 16.8317 16.4165 15.548 17.2888 13.9265C18.161 12.3051 18.4667 10.4387 18.1572 8.62376C17.8478 6.80878 16.941 5.14916 15.5808 3.9083C14.2206 2.66745 12.4849 1.91647 10.6492 1.77456C8.81351 1.63265 6.98301 2.10794 5.44825 3.125H5.875C6.05734 3.125 6.2322 3.19743 6.36114 3.32636C6.49007 3.45529 6.5625 3.63016 6.5625 3.8125C6.5625 3.99484 6.49007 4.1697 6.36114 4.29864C6.2322 4.42757 6.05734 4.5 5.875 4.5H3.8125C3.7222 4.50005 3.63278 4.4823 3.54934 4.44777C3.46591 4.41324 3.3901 4.3626 3.32625 4.29875C3.2624 4.2349 3.21176 4.15909 3.17723 4.07565C3.1427 3.99222 3.12495 3.9028 3.125 3.8125V1.75C3.125 1.56766 3.19743 1.39279 3.32636 1.26386C3.4553 1.13493 3.63016 1.0625 3.8125 1.0625C3.99484 1.0625 4.1697 1.13493 4.29864 1.26386C4.42757 1.39279 4.5 1.56766 4.5 1.75V2.10332C5.94291 1.09763 7.63386 0.506633 9.38909 0.394555C11.1443 0.282476 12.8967 0.653602 14.4558 1.4676C16.0149 2.2816 17.3211 3.50734 18.2324 5.01162C19.1438 6.51591 19.6254 8.24119 19.625 10ZM16.1875 10C16.1875 11.2238 15.8246 12.4201 15.1447 13.4376C14.4648 14.4551 13.4985 15.2482 12.3679 15.7165C11.2372 16.1848 9.99314 16.3074 8.79288 16.0686C7.59262 15.8299 6.49011 15.2406 5.62478 14.3752C4.75944 13.5099 4.17014 12.4074 3.93139 11.2071C3.69265 10.0069 3.81518 8.76276 4.2835 7.63214C4.75181 6.50153 5.54488 5.53517 6.56241 4.85528C7.57994 4.17539 8.77623 3.8125 10 3.8125C11.6405 3.81429 13.2133 4.46676 14.3732 5.62675C15.5332 6.78675 16.1857 8.35952 16.1875 10ZM12.4438 10.803L10.6875 9.63208V6.5625C10.6875 6.38016 10.6151 6.20529 10.4861 6.07636C10.3572 5.94743 10.1823 5.875 10 5.875C9.81766 5.875 9.6428 5.94743 9.51386 6.07636C9.38493 6.20529 9.3125 6.38016 9.3125 6.5625V10C9.31252 10.1132 9.34048 10.2246 9.39388 10.3244C9.44729 10.4242 9.52449 10.5092 9.61865 10.572L11.6812 11.947C11.8329 12.046 12.0175 12.0812 12.195 12.0448C12.3725 12.0084 12.5285 11.9034 12.629 11.7526C12.7295 11.6019 12.7664 11.4176 12.7317 11.2398C12.6971 11.0619 12.5936 10.905 12.4438 10.803Z" fill="#6393F2"/>
</svg>
