<svg width="20" height="20" viewBox="0 0 20 20" fill="none" xmlns="http://www.w3.org/2000/svg">
<circle cx="10" cy="10" r="10" fill="#6393F2"/>
<path d="M9.37066 3.03014C7.19136 3.26803 5.35933 4.36998 4.17535 6.14732C2.93121 8.0231 2.66324 10.3337 3.45074 12.4473C3.80074 13.3907 4.47066 14.3942 5.20894 15.0833C6.37926 16.177 7.78746 16.8114 9.40894 16.97C10.8609 17.1149 12.5316 16.6938 13.7867 15.8735C14.6207 15.3294 15.2578 14.6977 15.8211 13.8528C17.3632 11.545 17.3851 8.56451 15.8785 6.22662C14.7683 4.50396 13.0511 3.39654 11.0113 3.08209C10.5875 3.01646 9.73707 2.98912 9.37066 3.03014ZM8.90308 4.15396C8.88394 4.18951 8.79371 4.3399 8.70074 4.49029C8.3398 5.07271 7.98707 5.77818 7.73004 6.4317C7.66441 6.59576 7.60426 6.74068 7.59332 6.75435C7.56051 6.79263 6.72652 6.57935 6.2398 6.40982C6.06754 6.34967 5.53433 6.13092 5.47691 6.0981C5.46597 6.0899 5.55894 5.97779 5.68199 5.85201C6.3191 5.20943 7.01363 4.74185 7.81207 4.4274C8.11285 4.30982 8.65152 4.14576 8.85113 4.11295C8.88941 4.10748 8.92222 4.09928 8.92769 4.09654C8.93043 4.09654 8.91949 4.12115 8.90308 4.15396ZM11.5171 4.20045C12.3101 4.41099 13.0894 4.80474 13.7457 5.32701C14.0191 5.54576 14.555 6.07623 14.5222 6.0981C14.38 6.18287 13.6035 6.47271 13.2371 6.57935C13.0867 6.6231 12.4523 6.77349 12.4195 6.77349C12.414 6.77349 12.3457 6.60943 12.2664 6.40982C11.9984 5.73717 11.6156 4.97701 11.2574 4.41099C11.1671 4.26881 11.0933 4.14303 11.0933 4.13482C11.0933 4.10474 11.23 4.12389 11.5171 4.20045ZM10.2238 4.66256C10.5246 5.12193 10.7761 5.56217 10.9621 5.95318C11.1453 6.33599 11.3996 6.91568 11.3886 6.92389C11.3586 6.94576 10.4343 6.99224 9.99957 6.99224C9.36519 6.99224 8.63238 6.94303 8.63238 6.89928C8.63238 6.79537 9.12457 5.75631 9.39801 5.28326C9.57301 4.97974 9.98043 4.3399 9.99957 4.3399C10.0078 4.3399 10.1089 4.48482 10.2238 4.66256ZM5.14879 7.03599C5.72301 7.30396 6.33551 7.51451 6.97262 7.66217C7.2734 7.73053 7.29801 7.74146 7.28433 7.79615C7.16402 8.32388 7.09019 8.78599 7.03277 9.34928L7.01637 9.50787H5.52613H4.03863V9.41763C4.03863 9.28365 4.11519 8.84068 4.18902 8.5481C4.27105 8.22271 4.37222 7.9274 4.50621 7.61295C4.60191 7.38873 4.85074 6.91021 4.86988 6.91021C4.87535 6.91021 5.00113 6.96764 5.14879 7.03599ZM15.3644 7.34498C15.6679 7.94654 15.8785 8.63834 15.955 9.28365C15.9687 9.39303 15.9714 9.48599 15.966 9.4942C15.9578 9.5024 15.2851 9.50787 14.4675 9.50787H12.9855L12.9664 9.30826C12.9254 8.83795 12.8187 8.19263 12.7203 7.80982C12.7011 7.73599 12.7039 7.73599 12.9718 7.67584C13.5816 7.53912 14.3171 7.29029 14.8203 7.04967C14.9734 6.97584 15.1129 6.91842 15.1265 6.92115C15.1429 6.92389 15.2496 7.11529 15.3644 7.34498ZM8.8648 7.95474C9.3816 8.00123 10.7378 7.99303 11.2683 7.93834C11.5089 7.91373 11.7058 7.89732 11.7113 7.90279C11.714 7.90553 11.7496 8.04771 11.7879 8.21724C11.8726 8.57271 11.9683 9.18795 11.9683 9.37662V9.50787H9.99683H8.02262L8.04176 9.28912C8.07183 8.92545 8.21402 8.15435 8.29058 7.9274C8.29879 7.90553 8.33707 7.89732 8.40543 7.90826C8.46285 7.91373 8.67066 7.9356 8.8648 7.95474ZM7.03277 10.6481C7.09019 11.2141 7.16402 11.6762 7.28433 12.204C7.29801 12.2587 7.2734 12.2696 6.97262 12.3379C6.33551 12.4856 5.72301 12.6962 5.14605 12.9641C4.8234 13.1145 4.87808 13.1501 4.62652 12.6387C4.3148 11.9962 4.10425 11.2934 4.04957 10.6891L4.03043 10.4922H5.5234H7.01637L7.03277 10.6481ZM11.9601 10.7301C11.941 10.9899 11.8644 11.4465 11.7714 11.854L11.7113 12.1083L11.6156 12.0946C11.0304 12.0071 9.44996 11.9879 8.72808 12.059C8.50387 12.0809 8.30972 12.0919 8.30152 12.0809C8.24683 12.0262 8.0773 11.1321 8.04176 10.7165L8.02262 10.4922H9.99957H11.9765L11.9601 10.7301ZM15.966 10.5059C16.0152 10.5551 15.8484 11.3946 15.698 11.8594C15.5914 12.1848 15.2632 12.9094 15.1621 13.0434C15.1265 13.0899 15.1074 13.0844 14.8257 12.9504C14.2843 12.6989 13.5597 12.4528 12.9718 12.3243C12.7203 12.2669 12.7039 12.2587 12.7175 12.204C12.7996 11.9141 12.9254 11.1594 12.9664 10.6891L12.9855 10.4922H14.4675C15.2851 10.4922 15.9578 10.4977 15.966 10.5059ZM10.9703 13.0379C11.1972 13.0571 11.3832 13.0735 11.3859 13.0762C11.4187 13.0981 10.839 14.3149 10.5738 14.7715C10.4152 15.0504 10.0214 15.6602 9.99957 15.6602C9.97769 15.6602 9.58668 15.0504 9.40621 14.7305C9.10816 14.211 8.63238 13.2075 8.63238 13.1008C8.63238 13.0215 10.2128 12.9805 10.9703 13.0379ZM7.78199 13.6915C8.09097 14.4407 8.31519 14.8864 8.71441 15.5372C8.81558 15.7012 8.90582 15.8516 8.91402 15.868C8.95504 15.9419 8.29058 15.7641 7.8148 15.5727C7.0191 15.2583 6.33004 14.8016 5.72301 14.1864C5.45777 13.9212 5.4523 13.9129 5.51793 13.8856C5.55347 13.8719 5.65738 13.8282 5.74761 13.7872C5.98277 13.6805 6.44488 13.5165 6.74566 13.429C7.03551 13.3469 7.53863 13.2294 7.57418 13.2376C7.58785 13.2403 7.68082 13.4454 7.78199 13.6915ZM12.7339 13.295C13.1004 13.377 13.3382 13.4454 13.6992 13.5712C13.9316 13.6504 14.4539 13.8637 14.5222 13.902C14.5523 13.9212 14.1203 14.3587 13.8195 14.6102C13.1961 15.1352 12.4277 15.5399 11.6156 15.7696C11.457 15.8133 11.2656 15.8626 11.1945 15.8762C11.066 15.8981 11.0632 15.8981 11.1015 15.8407C11.4871 15.2555 12.0066 14.2493 12.2691 13.5876C12.3484 13.3907 12.414 13.2266 12.4195 13.2266C12.4222 13.2266 12.5644 13.2567 12.7339 13.295Z" fill="white"/>
</svg>
